<?xml version="1.0" encoding="UTF-8"?>
<svg width="902px" height="902px" viewBox="0 0 902 902" version="1.1" xmlns="http://www.w3.org/2000/svg" xmlns:xlink="http://www.w3.org/1999/xlink">
    <!-- Generator: Sketch 61.1 (89650) - https://sketch.com -->
    <title>DockDockBuild</title>
    <desc>Created with Sketch.</desc>
    <defs>
        <linearGradient x1="109.801213%" y1="49.7496885%" x2="50%" y2="50.2503115%" id="linearGradient-1">
            <stop stop-color="#FFFFFF" offset="0%"></stop>
            <stop stop-color="#000000" offset="100%"></stop>
        </linearGradient>
        <filter x="-1.4%" y="-20.0%" width="102.8%" height="140.0%" filterUnits="objectBoundingBox" id="filter-2">
            <feGaussianBlur stdDeviation="2" in="SourceGraphic"></feGaussianBlur>
        </filter>
        <linearGradient x1="55.001418%" y1="0%" x2="82.217552%" y2="228.084684%" id="linearGradient-3">
            <stop stop-color="#F2D719" offset="0%"></stop>
            <stop stop-color="#826A06" offset="100%"></stop>
        </linearGradient>
        <linearGradient x1="46.455752%" y1="85.8026543%" x2="62.7505222%" y2="130.390922%" id="linearGradient-4">
            <stop stop-color="#F2D719" offset="0%"></stop>
            <stop stop-color="#826A06" offset="100%"></stop>
        </linearGradient>
        <linearGradient x1="65.430417%" y1="174.168173%" x2="65.430417%" y2="-149.455683%" id="linearGradient-5">
            <stop stop-color="#F2D719" offset="0%"></stop>
            <stop stop-color="#826A06" offset="100%"></stop>
        </linearGradient>
        <polygon id="path-6" points="0.637939453 1.50363672 89.1905 0.8897 89.1905 114 1 114.0629"></polygon>
        <polygon id="path-8" points="0.7209 0.9572 47.9639 0.9572 47.9639 124 0.7209 124"></polygon>
        <polygon id="path-10" points="0.91652809 0.858482456 85.2177865 0.858482456 85.2177865 110 0.91652809 110"></polygon>
        <polygon id="path-12" points="0 0 46 0 46 119 0 119"></polygon>
        <radialGradient cx="50%" cy="50%" fx="50%" fy="50%" r="232.617858%" gradientTransform="translate(0.500000,0.500000),scale(0.339130,1.000000),translate(-0.500000,-0.500000)" id="radialGradient-14">
            <stop stop-color="#000000" stop-opacity="0.5" offset="0%"></stop>
            <stop stop-color="#FFFFFF" stop-opacity="0.5" offset="100%"></stop>
        </radialGradient>
        <filter x="-7.8%" y="-23.1%" width="115.7%" height="146.2%" filterUnits="objectBoundingBox" id="filter-15">
            <feGaussianBlur stdDeviation="3" in="SourceGraphic"></feGaussianBlur>
        </filter>
        <polygon id="path-16" points="0 0.1303 131.7208 0.1303 131.7208 45.2213 0 45.2213"></polygon>
        <linearGradient x1="55.0101546%" y1="0%" x2="82.2738306%" y2="228.084684%" id="linearGradient-18">
            <stop stop-color="#F2D719" offset="0%"></stop>
            <stop stop-color="#826A06" offset="100%"></stop>
        </linearGradient>
        <polygon id="path-19" points="0.000177622227 0.427 110.332 0.427 110.332 193 0.000177622227 193"></polygon>
    </defs>
    <g id="DockDockBuild" stroke="none" stroke-width="1" fill="none" fill-rule="evenodd">
        <g id="Group-90" transform="translate(117.000000, 103.000000)">
            <ellipse id="Oval" fill="url(#linearGradient-1)" filter="url(#filter-2)" cx="349" cy="576" rx="212" ry="15"></ellipse>
            <path d="M306.8682,298.5713 C343.0132,311.8893 380.2222,316.3793 418.5122,311.9173 C380.7792,311.7593 343.5632,307.3233 306.8682,298.5713 M206.6452,544.0083 C207.1162,544.3613 207.9532,545.0833 208.8772,545.6693 C231.5142,560.0353 256.4032,568.3263 282.6642,572.7963 C295.7442,575.0223 308.9762,575.9743 322.2262,575.8833 C334.8382,575.7983 347.4442,575.0853 360.0542,574.6473 C360.0462,574.3723 360.0382,574.0963 360.0312,573.8203 C355.0482,573.8203 350.0642,573.7443 345.0832,573.8343 C321.3382,574.2613 297.8462,571.9263 274.5422,567.4903 C259.7922,564.6813 245.2442,561.0593 231.3432,555.3313 C222.8392,551.8273 214.6002,547.6803 206.6452,544.0083 M264.1552,126.9363 C280.8782,107.3043 301.7972,94.0963 326.3512,86.5273 C344.6632,80.8843 363.4222,79.0383 382.4332,81.0163 C421.7812,85.1123 454.7072,101.5153 479.3122,133.0503 C492.0292,149.3473 499.8172,167.8473 502.1482,188.4773 C505.8342,221.0963 496.3982,249.6813 475.3522,274.6233 C468.7632,282.4333 461.1212,289.0913 452.8842,295.1173 C449.9372,297.2723 447.1532,299.6913 444.5152,302.2193 C439.8882,306.6533 440.6632,311.9743 446.2892,315.1473 C451.0612,317.8393 456.3972,318.2953 461.6962,318.9683 C476.4292,320.8433 489.4532,316.1233 501.7702,308.7023 C515.6742,300.3263 529.3792,291.6103 543.4552,283.5413 C552.1032,278.5833 561.5712,275.6643 571.7122,275.1943 C584.9542,274.5803 595.1972,280.2483 603.6432,289.8833 C612.0682,299.4923 617.5842,310.7353 621.8522,322.6623 C626.7352,336.3033 629.6222,350.4073 631.1862,364.7683 C633.7582,388.3843 633.4522,412.0383 631.1122,435.6393 C628.9692,457.2583 624.0772,478.1943 613.8432,497.5913 C600.9652,521.9983 581.4082,539.5603 557.3812,552.5013 C542.8742,560.3133 527.5612,566.1113 511.7592,570.7043 C489.0552,577.3013 465.8752,581.3983 442.4302,584.1753 C402.6292,588.8903 362.6972,590.3943 322.6722,588.5313 C297.8382,587.3763 273.1922,584.4513 249.0262,578.3293 C227.8102,572.9553 207.5772,565.2683 189.5532,552.5263 C166.6622,536.3433 146,514.473208 146,487 C146.849132,487.582756 157.813689,495.165773 166.702271,501.381836 C173.133385,505.879316 178.382726,509.700457 178.3826,509.449 C178.376676,497.62157 176.5229,430.2447 176.5229,420.8268 C176.5229,419.658509 148.19353,404.677136 148.576172,403.584473 C157.677847,377.593941 175.501992,352.42235 199.8302,334.9793 C215.5082,323.7383 232.5352,314.7513 248.8892,304.6403 C253.4082,301.8463 257.7132,298.6533 261.8622,295.3263 C267.4462,290.8513 268.6552,287.0153 266.0872,280.3483 C264.3402,275.8113 261.7772,271.5613 259.3332,267.3253 C250.9772,252.8443 243.8002,237.8863 240.0902,221.4653 C239.9072,220.6553 239.7952,219.8273 239.7002,219.0013 C239.6752,218.7863 239.8382,218.5503 240.0012,218.0703 C240.5022,218.4893 240.9672,218.7673 241.2872,219.1633 C243.3282,221.6903 245.6402,224.0613 247.2982,226.8233 C251.4312,233.7093 257.5972,234.9863 264.7992,233.7123 C273.7372,232.1303 281.6872,228.1643 289.1902,223.2343 C294.9982,219.4193 300.2352,214.9443 304.6282,209.5093 C309.0412,204.0503 311.0462,197.8703 310.2622,190.8953 C308.0312,171.0683 301.7922,152.5803 291.3082,135.5923 C289.7592,133.0813 287.6602,130.8103 285.4592,128.8233 C282.2572,125.9323 279.8372,126.1223 276.2352,128.5163 C271.2122,131.8573 265.4802,133.0493 259.2082,133.3213 C260.8522,131.1883 262.4112,128.9833 264.1552,126.9363 Z" id="body" fill="#FFE815"></path>
            <polygon id="Rectangle" fill="#F9C535" points="146 487 178 487 178.3826 509.5793"></polygon>
            <path d="M307.83,211.6216 C296.515,224.4786 282.44,232.9536 265.642,236.5326 C259.164,237.9126 254.052,236.3176 249.575,230.3236 C241.897,220.0396 233.039,210.6346 224.64,200.8936 C216.355,191.2856 207.995,181.7256 201.872,170.5186 C200.218,167.4926 198.912,164.2306 197.817,160.9526 C195.204,153.1326 198.332,145.2616 205.697,141.1986 C212.153,137.6356 219.143,135.9036 226.309,134.8306 C236.896,133.2466 247.538,132.0326 258.125,130.4496 C266.05,129.2646 273.746,127.2756 280.644,122.8796 C283.73,120.9136 285.722,120.8866 288.158,123.6156 C291.441,127.2936 294.652,131.2206 296.982,135.5346 C306.044,152.3116 311.594,170.2796 314.011,189.1996 C314.225,190.8726 314.204,192.5746 314.292,194.2626 C314.842,201.0606 312.095,206.7756 307.83,211.6216 Z" id="Fill-3" fill="#F7BC37"></path>
            <path d="M206.6456,544.0088 C214.6006,547.6808 222.8396,551.8268 231.3436,555.3308 C245.2446,561.0598 259.7916,564.6818 274.5416,567.4898 C297.8456,571.9268 321.3376,574.2618 345.0826,573.8338 C350.0646,573.7438 355.0476,573.8208 360.0316,573.8208 C360.0386,574.0968 360.0456,574.3718 360.0536,574.6478 C347.4446,575.0848 334.8376,575.7978 322.2266,575.8838 C308.9766,575.9748 295.7446,575.0228 282.6646,572.7958 C256.4036,568.3258 231.5136,560.0348 208.8766,545.6688 C207.9536,545.0828 207.1156,544.3618 206.6456,544.0088" id="Fill-9" fill="#FFE815"></path>
            <path d="M306.8682,298.5713 C343.5632,307.3233 380.7792,311.7593 418.5122,311.9173 C380.2222,316.3793 343.0132,311.8893 306.8682,298.5713" id="Fill-11" fill="#F2B711"></path>
            <path d="M615.3194,375.2324 C614.2354,376.5414 613.1514,377.8494 612.0684,379.1594 C611.7984,378.9464 611.5294,378.7344 611.2584,378.5214 C612.3284,377.2004 613.3974,375.8784 614.4654,374.5554 C614.7504,374.7814 615.0344,375.0064 615.3194,375.2324" id="Fill-39" fill="#FFE815"></path>
            <path d="M199,156 C202.277,156.912 205.626,157.626 208.821,158.768 C240.842,170.217 270.771,185.903 299.607,203.784 C301.039,204.671 302.387,205.69 303.775,206.648 C269.236,188.822 235.113,170.48 199,156 Z" id="Fill-41" fill="#FFE815" transform="translate(251.387500, 181.324000) rotate(179.000000) translate(-251.387500, -181.324000) "></path>
            <g id="eye" transform="translate(350.919798, 157.031049)">
                <path d="M36.3781024,22.4904513 C36.4991024,12.9234513 29.1621024,5.39945132 19.4741024,5.15645132 C9.82610241,4.91445132 1.95210241,12.4654513 1.85710241,22.0514513 C1.76210241,31.6144513 9.38410241,39.4854513 18.9041024,39.6534513 C28.3241024,39.8204513 36.2571024,32.0274513 36.3781024,22.4904513 M22.5691024,45.0616677 C9.95610241,45.0994513 -0.0368975856,35.1504513 -0.00010184918,22.5934513 C0.0371024144,10.4874513 10.2431024,-0.0795486846 21.8191024,0.000451315359 C34.9321024,0.0914513154 44.9371024,9.99945132 44.8904311,22.8464513 C44.8451024,35.1514513 34.9261024,45.0234513 22.5691024,45.0616677 Z" id="Fill-47" stroke="#000000" fill="#FFFFFF"></path>
                <path d="M20.07987,22.0134305 C20.1111286,19.185008 17.9341852,16.9462688 15.1711416,16.9691248 C12.5677405,16.9896951 10.1061198,19.4124246 10.0804431,21.9814321 C10.0536499,24.7252876 12.2674339,26.9365997 15.0762492,26.968598 C17.8817153,27.0005963 20.0474949,24.8555664 20.07987,22.0134305 M38.0785788,21.0647752 C37.9453936,31.5687868 29.2146079,40.1499629 18.8459744,39.9660491 C8.36616982,39.7821353 -0.0233975334,31.1128567 0.0811693649,20.5813131 C0.185736263,10.0244401 8.85268107,1.70867247 19.4722751,1.97518231 C30.1358973,2.2438947 38.211764,10.5288265 38.0785788,21.0647752" id="Fill-49" fill="#000000"></path>
                <path d="M21.1169781,22.7384008 C21.071653,26.7173912 18.0395615,29.720433 14.111909,29.6756354 C10.1795677,29.6308377 7.08027003,26.5350008 7.11778044,22.6936032 C7.15372791,19.0969926 10.5999968,15.7051713 14.2447584,15.6763729 C18.1130194,15.6443745 21.1607403,18.7786094 21.1169781,22.7384008" id="Fill-51" fill="#FFFFFF"></path>
            </g>
            <g id="Empty-cube-space" transform="translate(176.522900, 401.514200)">
                <polygon id="Fill-53" fill="#F2D719" points="87.441 89.8608 1.86 108.5338 0.972 64.9648 1.42108547e-14 17.2648 86.325 0.0008"></polygon>
                <polygon id="Fill-55" fill="#F7DA0E" points="133.5807 117.687 87.4407 89.861 86.3247 1.42108547e-14 131.7207 26.418"></polygon>
                <polygon id="Fill-57" fill="#F9C535" points="133.5807 117.687 47.0697 135.214 1.8597 108.534 87.4407 89.861"></polygon>
                <polyline id="Fill-82" fill="url(#linearGradient-3)" points="86.3247 0.0008 87.441 89.4858 56.9144 96.5207"></polyline>
                <polyline id="Fill-82-Copy-3" fill="url(#linearGradient-4)" transform="translate(96.405099, 50.673857) scale(-1, 1) translate(-96.405099, -50.673857) " points="106.485498 0.0008 105.369198 89.4858 86.3247 101.346915"></polyline>
                <polyline id="Fill-82-Copy" fill="url(#linearGradient-5)" points="87.441 89.4858 106.485498 101.346915 56.9144 96.5207"></polyline>
            </g>
            <g id="Cube2" transform="translate(222.406000, 538.511900)">
                <g id="Group-65" transform="translate(46.594000, 26.937100)">
                    <mask id="mask-7" fill="white">
                        <use xlink:href="#path-6"></use>
                    </mask>
                    <g id="Clip-64"></g>
                    <polygon id="Fill-63" fill="#F7DA31" mask="url(#mask-7)" points="89.1905 92.2307 1 114.0629 1 18.9509023 87.1275 0.8897"></polygon>
                </g>
                <g id="Group-68" transform="translate(0.594000, 16.937100)">
                    <mask id="mask-9" fill="white">
                        <use xlink:href="#path-8"></use>
                    </mask>
                    <g id="Clip-67"></g>
                    <polygon id="Fill-66" fill="#FFE815" mask="url(#mask-9)" points="47 124 1.4529 92.2862 0.7209 0.9572 47 28.9509023"></polygon>
                </g>
                <polygon id="Fill-69" fill="#F9C535" points="133.721 27.827 47.594 45.8880023 1.3148 17.8944 87.581 5.68434189e-14"></polygon>
            </g>
            <g id="Cube2-Copy" transform="translate(0.000000, 395.000000)">
                <g id="Group-65" transform="translate(44.000000, 25.000000)">
                    <mask id="mask-11" fill="white">
                        <use xlink:href="#path-10"></use>
                    </mask>
                    <g id="Clip-64"></g>
                    <polygon id="Fill-63" fill="#F7DA31" mask="url(#mask-11)" points="83 89.1745605 2.07543945 109.049805 0.91652809 17.4337456 83 1.53599308"></polygon>
                </g>
                <g id="Group-68" transform="translate(0.000000, 16.000000)">
                    <mask id="mask-13" fill="white">
                        <use xlink:href="#path-12"></use>
                    </mask>
                    <g id="Clip-67"></g>
                    <polygon id="Fill-66" fill="#FFE815" mask="url(#mask-13)" points="46.0754395 118.049805 0.42092181 88.289722 -1.84336053e-15 0.44970283 44.9165281 27"></polygon>
                </g>
                <polygon id="Fill-69" fill="#F9C535" points="127 26.5359931 44.7109497 43 0 16.4497028 82.5136994 0"></polygon>
                <polygon id="Fill-69-Copy-2" fill="url(#radialGradient-14)" opacity="0.791062128" filter="url(#filter-15)" points="121 175.067529 46.486293 190 6 165.919498 80.7171294 151"></polygon>
            </g>
            <g id="hard-hat" transform="translate(399.000000, 101.000000) rotate(9.000000) translate(-399.000000, -101.000000) translate(274.000000, 19.000000)">
                <path d="M224.567142,161.303885 C217.252142,160.965885 202.023142,161.221885 186.081142,158.466885 C176.282142,156.772885 166.169142,151.488885 157.590142,151.488885 C129.064142,151.488885 118.377388,150.713732 110.882388,150.244732 C105.744388,149.923732 102.187696,149.792931 95.0746959,147.656931 C81.5996959,143.611931 63.8801423,132.921885 46.7061423,122.076885 C22.5211423,106.802885 0.684886209,90.0647499 0.688292306,84.8737499 C0.688292306,76.2947499 35.9771423,76.5958847 38.8931423,72.2168847 C49.3021423,56.5828847 57.3991423,37.3928847 71.2651423,25.0228847 C95.3721423,3.51688469 130.373142,-4.52911531 161.979142,4.36188469 C259.397142,31.7698847 253.476142,101.004885 242.256142,143.616885 C239.044142,155.816885 259.411142,162.911885 224.567142,161.303885 Z" id="Fill-86" fill="#FF8B00"></path>
                <path d="M36.7805423,75.4713847 L36.4175423,74.8853847 C35.4725423,75.0913847 34.4735423,75.1743847 33.6065423,75.5563847 C33.1935423,75.7393847 32.9275423,76.4643847 32.7935423,76.9933847 C32.7185423,77.2893847 33.0525423,77.6873847 33.2035423,78.0383847 C33.6535423,77.7823847 34.1335423,77.5643847 34.5475423,77.2573847 C35.3115423,76.6903847 36.0385423,76.0693847 36.7805423,75.4713847 M151.050542,3.17738469 C137.046542,-0.276615314 111.092542,1.32638469 91.6115423,11.5023847 C76.2225423,19.5393847 64.2125423,31.1323847 55.0645423,46.5183847 C81.7125423,19.2703847 113.035542,3.86438469 151.050542,3.17738469 M238.164542,144.278385 C235.327542,144.876385 232.417542,145.712385 229.448542,146.076385 C219.614542,147.283385 209.911542,145.915385 200.226542,144.325385 C185.726542,141.945385 171.559542,138.178385 157.575542,133.767385 C142.384542,128.975385 127.325542,123.719385 112.864542,117.015385 C100.680542,111.367385 88.7935423,105.080385 76.7505423,99.1253847 C75.8735423,98.6923847 74.7595423,98.3503847 73.8275423,98.4813847 C69.2265423,99.1283847 64.6585423,100.008385 60.0585423,100.660385 C59.1295423,100.792385 57.9345423,100.558385 57.1655423,100.041385 C53.7895423,97.7783847 50.5275423,95.3463847 47.2205423,92.9813847 C44.8325423,91.2723847 42.4375423,89.5723847 40.0465423,87.8673847 C40.2745423,88.5963847 40.6475423,89.1273847 41.1405423,89.4993847 C46.6465423,93.6423847 51.9945423,98.0273847 57.7245423,101.834385 C72.7105423,111.789385 88.7685423,119.804385 105.278542,126.863385 C116.363542,131.601385 127.567542,136.116385 138.927542,140.141385 C150.611542,144.282385 162.476542,147.957385 174.394542,151.374385 C186.720542,154.908385 199.263542,157.612385 212.021542,159.153385 C219.843542,160.097385 227.686542,160.947385 235.546542,159.614385 C238.893542,159.045385 242.348542,158.519385 244.228542,155.691385 C242.076542,151.641385 240.077542,147.878385 238.164542,144.278385 M164.820542,7.41338469 C161.471542,7.11738469 158.129542,6.70838469 154.774542,6.54538469 C140.728542,5.86238469 127.104542,8.05138469 113.798542,12.5453847 C104.239542,15.7743847 95.0375423,19.8313847 86.6165423,25.3283847 C79.8085423,29.7723847 73.1985423,34.6393847 67.0675423,39.9693847 C56.8245423,48.8753847 48.5025423,59.4043847 43.0255423,71.9683847 C42.0675423,74.1633847 41.0045423,76.2263847 39.1635423,77.8453847 C38.0335423,78.8383847 37.0575423,80.0073847 35.9885423,81.1243847 C43.3005423,86.4143847 50.6215423,91.7113847 58.2565423,97.2353847 C60.2005423,95.0493847 62.9125423,93.1923847 63.9375423,90.6543847 C69.9125423,75.8663847 78.2655423,62.5673847 88.4545423,50.4093847 C98.4485423,38.4823847 109.857542,28.0403847 123.444542,20.3333847 C129.461542,16.9223847 135.924542,14.1883847 142.409542,11.7433847 C149.549542,9.05338469 157.110542,7.97938469 164.820542,7.41338469 M78.8535423,98.5033847 C78.7515423,98.3633847 78.8365423,98.6013847 79.0005423,98.6863847 C86.4325423,102.559385 93.7575423,106.661385 101.333542,110.229385 C118.359542,118.245385 135.753542,125.400385 153.803542,130.807385 C164.920542,134.137385 176.067542,137.406385 187.321542,140.223385 C196.950542,142.634385 206.764542,144.458385 216.721542,144.715385 C222.314542,144.859385 227.956542,144.342385 233.527542,143.698385 C236.633542,143.339385 239.493542,141.840385 240.603542,138.493385 C243.710542,129.124385 246.540542,119.693385 247.332542,109.768385 C248.421542,96.1253847 247.216542,82.8443847 242.329542,69.9073847 C238.449542,59.6333847 232.887542,50.4703847 225.830542,42.1423847 C225.528542,41.7853847 225.079542,41.5503847 224.689542,41.2723847 C223.506542,40.4253847 222.134542,39.7563847 221.162542,38.7143847 C215.887542,33.0653847 210.075542,28.1013847 203.441542,24.1023847 C187.421542,14.4463847 170.465542,12.9283847 152.896542,18.7423847 C139.506542,23.1723847 128.031542,30.9513847 117.675542,40.4243847 C109.939542,47.4983847 103.129542,55.3993847 97.1225423,63.9683847 C90.4855423,73.4353847 84.8955423,83.4793847 81.0395423,94.4333847 C80.5555423,95.8053847 79.6575423,97.0323847 78.8535423,98.5033847 M226.019542,163.219385 C210.504542,162.805385 195.353542,159.965385 180.381542,156.025385 C175.149542,154.648385 169.945542,153.157385 164.683542,151.909385 C162.931542,151.493385 161.036542,151.562385 159.210542,151.601385 C141.240542,151.989385 123.304542,151.283385 105.397542,149.835385 C96.2655423,149.097385 87.8725423,145.807385 79.7255423,141.866385 C66.9535423,135.687385 55.0115423,128.081385 43.2995423,120.133385 C32.5825423,112.860385 21.9365423,105.467385 11.4985423,97.8033847 C8.03354226,95.2603847 5.30754226,91.7113847 2.24754226,88.6183847 C2.09954226,88.4693847 1.96254226,88.3013847 1.85054226,88.1223847 C-0.747457744,83.9653847 -1.40145774,80.5283847 5.21054226,78.8053847 C12.5745423,76.8863847 19.9985423,75.1943847 27.3955423,73.4063847 C30.5485423,72.6443847 33.7105423,71.9193847 36.8515423,71.1173847 C38.7085423,70.6433847 39.9115423,69.4673847 40.8925423,67.7483847 C46.3355423,58.2163847 51.5815423,48.5473847 57.5255423,39.3323847 C63.6805423,29.7903847 71.8495423,22.0883847 81.2975423,15.6523847 C94.7605423,6.48038469 109.678542,1.86538469 125.734542,0.407384686 C140.024542,-0.890615314 153.992542,0.999384686 167.723542,4.84938469 C174.690542,6.80238469 181.759542,8.59338469 188.450542,11.2833847 C199.996542,15.9273847 210.059542,22.9823847 218.933542,31.7663847 C226.328542,39.0863847 232.523542,47.3293847 237.844542,56.1913847 C242.051542,63.1983847 245.064542,70.7863847 247.007542,78.7783847 C250.717542,94.0353847 250.417542,109.264385 246.776542,124.466385 C245.928542,128.005385 245.102542,131.613385 243.683542,134.941385 C240.810542,141.681385 242.327542,147.470385 246.695542,152.877385 C248.936542,155.651385 248.444542,157.773385 245.232542,159.748385 C241.253542,162.196385 236.828542,162.890385 232.307542,163.196385 C230.220542,163.336385 228.116542,163.219385 226.019542,163.219385" id="Fill-88" fill="#B84B02"></path>
            </g>
        </g>
        <polygon id="Rectangle" fill="#F7DA31" points="340.5926 639.7282 427.1036 622.2012 427.1036 641.988892 340.5926 659.707886"></polygon>
        <g id="cube1" transform="translate(209.000000, 631.449000)">
            <polygon id="Fill-75" fill="#F7DA31" points="132.837 119.469 48.575 141.858 46.3728 45.2213 131.721 27.957"></polygon>
            <polygon id="Fill-77" fill="#FFE815" points="48.5582 141.0666 2.0462 109.3526 0.1862 18.0846 46.5422 45.1346"></polygon>
            <g id="Group-81">
                <mask id="mask-17" fill="white">
                    <use xlink:href="#path-16"></use>
                </mask>
                <g id="Clip-80"></g>
                <polygon id="Fill-79" fill="#F9C535" mask="url(#mask-17)" points="131.7208 27.9573 46.3728 45.2213 0.1862 18.0846 85.5808 0.1303"></polygon>
            </g>
        </g>
        <polyline id="Fill-82-Copy-2" fill="url(#linearGradient-18)" opacity="0.47281901" points="340.721 659.707886 341.837 750.918 310.316406 759.283691"></polyline>
        <g id="Group-8" transform="translate(633.968750, 616.781250) scale(-1, -1) rotate(72.000000) translate(-633.968750, -616.781250) translate(578.468750, 519.781250)">
            <g id="Group-3" transform="translate(0.000000, 0.573000)">
                <mask id="mask-20" fill="white">
                    <use xlink:href="#path-19"></use>
                </mask>
                <g id="Clip-2"></g>
                <path d="M73.033,189.569602 C91.13,189.5756 104.583,178.3686 106.621,163.8456 C108.858,147.8996 99.735,133.7786 84.411,129.2306 C83.301,128.9016 81.997,127.6446 81.651,126.5456 C74.341,103.3576 67.168,80.1256 59.92,56.9166 C59.357,55.1176 59.877,54.1366 61.254,52.8836 C63.629,50.7226 65.905,48.3376 67.715,45.6986 C70.498,41.6416 71.032,37.0996 69.436,32.3296 C67.853,27.5926 66.143,22.8696 64.992,18.0216 C63.09,10.0096 57.386,6.4936 50.139,4.5696 C47.613,3.8976 47.064,4.5326 47.839,7.0606 C49.229,11.5986 50.776,16.0936 52.018,20.6716 C53.862,27.4656 52.817,33.7946 47.988,39.1116 C39.012,48.9936 22.535,45.3616 17.622,32.4006 C16.031,28.2036 14.923,23.8256 13.494,19.5636 C13.013,18.1316 12.221,16.8026 11.572,15.4266 C10.354,16.4826 8.929,17.3766 7.958,18.6226 C4.566,22.9716 2.29,27.7456 3.95,33.4416 C5.604,39.1166 7.579,44.6986 9.171,50.3896 C10.758,56.0676 14.56,59.5056 19.852,61.3756 C22.49,62.3066 25.334,62.7286 28.12,63.1416 C29.548,63.3526 30.346,63.7946 30.77,65.2356 C32.106,69.7886 33.569,74.3046 34.977,78.8376 C40.781,97.5246 46.577,116.2136 52.397,134.8956 C52.925,136.5876 52.88,137.9306 51.654,139.4836 C43.757,149.4826 42.108,160.5126 47.651,172.0176 C53.225,183.5866 63.036,189.0596 73.033,189.569602 M73.851,193.0006 C62.018,192.4396 51.194,186.5636 44.876,174.0846 C38.697,161.8796 39.994,149.8736 47.921,138.7006 C48.963,137.2316 49.133,135.9886 48.614,134.3266 C42.394,114.3706 36.047,94.4506 30.173,74.3936 C28.629,69.1196 26.649,66.1656 20.702,65.0716 C13.073,63.6686 7.773,58.5606 5.631,50.6736 C4.3,45.7746 2.838,40.8986 1.163,36.1066 C-0.896,30.2166 -0.225,24.6446 3.211,19.6516 C5.442,16.4086 8.328,13.5616 11.202,10.8336 C13.273,8.8666 13.851,9.2126 14.697,11.9186 C16.659,18.1976 18.498,24.5206 20.639,30.7376 C23.538,39.1526 32.461,43.4346 40.322,40.3966 C47.02,37.8086 50.996,29.9656 49.005,22.7156 C47.22,16.2136 45.115,9.7986 43.15,3.3466 C42.351,0.7206 42.614,0.2786 45.251,0.4636 C50.832,0.8546 56.071,2.3726 60.713,5.6056 C64.184,8.0236 66.515,11.2506 67.71,15.3486 C69.108,20.1456 70.427,24.9836 72.176,29.6546 C75.471,38.4516 73.361,46.1026 66.88,52.2486 C63.638,55.3206 63.698,57.8196 64.887,61.5576 C71.301,81.7136 77.517,101.9326 83.709,122.1576 C84.471,124.6486 85.631,126.1536 88.219,127.1226 C104.205,133.1056 112.803,148.7296 109.707,165.7626 C106.908,181.1606 92.239,192.9646 73.851,193.0006" id="Fill-1" fill="#505050" mask="url(#mask-20)"></path>
            </g>
            <path d="M70.6726,140.896 C70.1276,141.248 69.2776,141.601 68.6916,142.207 C65.0386,145.977 61.3766,149.742 57.8936,153.664 C57.2316,154.41 56.9206,155.974 57.1906,156.958 C58.5336,161.853 60.1816,166.664 61.5966,171.542 C62.0546,173.123 62.9156,173.845 64.4846,174.186 C69.5306,175.282 74.5296,176.605 79.5966,177.584 C80.6566,177.789 82.2556,177.231 83.0466,176.456 C86.6126,172.957 89.9286,169.203 93.4426,165.648 C94.7476,164.329 94.9306,163.03 94.3916,161.361 C92.9586,156.924 91.5426,152.479 90.2566,147.998 C89.6946,146.041 88.7546,144.901 86.6286,144.51 C82.7816,143.802 78.9856,142.818 75.1706,141.946 C73.7906,141.63 72.4146,141.303 70.6726,140.896 M73.0326,190.143002 C63.0356,189.633 53.2256,184.159 47.6516,172.59 C42.1086,161.086 43.7566,150.056 51.6536,140.056 C52.8796,138.503 52.9246,137.16 52.3976,135.468 C46.5766,116.787 40.7806,98.097 34.9776,79.411 C33.5686,74.878 32.1066,70.362 30.7706,65.809 C30.3466,64.367 29.5476,63.926 28.1196,63.714 C25.3336,63.301 22.4896,62.88 19.8526,61.948 C14.5606,60.078 10.7576,56.64 9.1706,50.963 C7.5786,45.272 5.6046,39.689 3.9496,34.015 C2.2896,28.318 4.5666,23.544 7.9576,19.196 C8.9296,17.949 10.3546,17.055 11.5716,16 C12.2216,17.375 13.0136,18.704 13.4936,20.137 C14.9226,24.398 16.0306,28.777 17.6216,32.974 C22.5346,45.935 39.0126,49.566 47.9876,39.685 C52.8176,34.368 53.8616,28.039 52.0186,21.244 C50.7766,16.667 49.2296,12.172 47.8386,7.634 C47.0646,5.106 47.6126,4.471 50.1396,5.142 C57.3856,7.067 63.0896,10.583 64.9916,18.595 C66.1436,23.443 67.8536,28.166 69.4366,32.903 C71.0316,37.673 70.4976,42.215 67.7146,46.271 C65.9046,48.911 63.6286,51.296 61.2536,53.457 C59.8766,54.71 59.3576,55.691 59.9196,57.49 C67.1676,80.698 74.3406,103.93 81.6516,127.119 C81.9966,128.218 83.3006,129.474 84.4106,129.804 C99.7346,134.352 108.8586,148.472 106.6206,164.419 C104.5826,178.941 91.1296,190.148 73.0326,190.143002" id="Fill-4" stroke="#505050" fill="#939393"></path>
            <path d="M71.9812,144.6411 C71.4012,144.9861 70.4532,145.3261 69.8142,145.9721 C67.0652,148.7501 64.3182,151.5411 61.7782,154.5061 C61.1112,155.2861 60.7502,156.8191 61.0062,157.8101 C61.9852,161.5861 63.1802,165.3161 64.5152,168.9831 C64.8432,169.8861 65.8922,170.8981 66.8062,171.1511 C70.6482,172.2151 74.5422,173.1431 78.4682,173.8171 C79.5502,174.0021 81.1222,173.4601 81.9372,172.6891 C84.7122,170.0651 87.3432,167.2681 89.8192,164.3581 C90.4792,163.5811 90.8152,162.0561 90.5652,161.0591 C89.6132,157.2761 88.4272,153.5451 87.1662,149.8511 C86.8862,149.0341 86.0492,148.0291 85.2782,147.8211 C81.0282,146.6741 76.7182,145.7471 71.9812,144.6411 M70.6722,140.8961 C72.4152,141.3031 73.7912,141.6301 75.1702,141.9461 C78.9862,142.8181 82.7822,143.8021 86.6282,144.5101 C88.7542,144.9011 89.6952,146.0411 90.2562,147.9981 C91.5432,152.4791 92.9592,156.9241 94.3912,161.3611 C94.9302,163.0301 94.7482,164.3281 93.4422,165.6481 C89.9282,169.2031 86.6132,172.9561 83.0462,176.4551 C82.2552,177.2311 80.6572,177.7881 79.5962,177.5841 C74.5302,176.6051 69.5312,175.2821 64.4842,174.1861 C62.9162,173.8451 62.0542,173.1221 61.5962,171.5411 C60.1812,166.6641 58.5342,161.8531 57.1902,156.9571 C56.9202,155.9741 57.2312,154.4101 57.8932,153.6641 C61.3772,149.7421 65.0392,145.9761 68.6912,142.2071 C69.2782,141.6001 70.1272,141.2471 70.6722,140.8961" id="Fill-6" fill="#000000"></path>
        </g>
        <path d="M623.039036,557.885313 C626.462036,556.969313 629.894036,556.089313 633.306036,555.130313 C643.392036,552.293313 653.539036,549.647313 663.515036,546.462313 C667.577036,545.166313 671.307036,542.765313 675.095036,540.696313 C677.192036,539.550313 677.560036,539.608313 677.775036,542.023313 C678.700036,552.454313 676.432036,562.215313 671.524036,571.400313 C663.728036,585.989313 652.207036,597.153313 638.918036,606.657313 C623.175036,617.918313 605.901036,626.003313 587.209036,630.936313 C570.518036,635.340313 553.605036,637.206313 536.536036,633.288313 C514.559036,628.243313 500.382036,614.854313 494.861036,592.876313 C487.379036,563.093313 494.786036,536.886313 514.571036,513.860313 C529.164036,496.875313 547.303036,484.670313 567.390036,475.200313 C584.138036,467.305313 601.664036,461.888313 620.041036,459.355313 C633.766036,457.464313 647.454036,457.230313 660.978036,460.750313 C671.817036,463.573313 681.355036,468.503313 687.659036,478.278313 C690.837036,483.205313 692.549036,488.647313 693.103036,494.454313 C694.195036,505.870313 691.819036,516.604313 686.896036,526.905313 C682.883036,535.302313 676.322036,540.385313 667.454036,542.711313 C660.211036,544.612313 652.865036,546.192313 645.741036,548.465313 C638.699036,550.711313 631.873036,553.638313 624.965036,556.298313 C624.228036,556.582313 623.575036,557.083313 622.883036,557.485313 C622.935036,557.618313 622.987036,557.751313 623.039036,557.885313" id="Fill-45" fill="#F7BC37" transform="translate(592.682317, 546.713666) rotate(12.000000) translate(-592.682317, -546.713666) "></path>
    </g>
</svg>